<?xml version="1.0" encoding="utf-8"?>
<!-- Generator: Adobe Illustrator 16.0.4, SVG Export Plug-In . SVG Version: 6.00 Build 0)  -->
<!DOCTYPE svg PUBLIC "-//W3C//DTD SVG 1.1//EN" "http://www.w3.org/Graphics/SVG/1.1/DTD/svg11.dtd">
<svg version="1.1" id="Layer_1" xmlns="http://www.w3.org/2000/svg" xmlns:xlink="http://www.w3.org/1999/xlink" x="0px" y="0px"
	 width="841.889px" height="595.281px" viewBox="0 0 841.889 595.281" enable-background="new 0 0 841.889 595.281"
	 xml:space="preserve">
<g>
	<path d="M279.645,108.036c-3.496-10.695,2.343-22.201,13.034-25.701l80.391-26.293L357.674,35.65
		c-6.777-8.977-19.55-10.768-28.531-3.981L190.929,136.019c-8.978,6.781-10.759,19.559-3.977,28.54l168.797,223.568
		c6.782,8.977,9.83,14.473,18.816,7.677c0,0-4.605-11.663-7.825-21.525L279.645,108.036z"/>
	<path d="M518.447,81.416l-8.567-26.192c-3.495-10.696-14.991-16.535-25.701-13.034L319.585,96.031
		c-10.691,3.5-16.525,15.001-13.034,25.696l87.102,266.258c3.49,10.696,7.614,14.948,15.605,12.781c0,0,0.905-12.996,1.391-23.43
		l12.758-279.858c0.515-11.243,10.044-19.939,21.269-19.425L518.447,81.416z"/>
	<path d="M639.613,111.127L466.6,103.236c-11.22-0.51-20.749,8.182-21.263,19.43L432.56,402.514
		c-0.515,11.234,8.19,20.759,19.42,21.273l173.013,7.896c11.229,0.505,20.754-8.196,21.277-19.421l12.763-279.857
		C659.547,121.166,650.847,111.636,639.613,111.127z M574.851,273.11l-0.977,63.69l-31.593-56.881l-50.565,18.959l33.06-51.047
		l-63.686-26.254l65.124-4.339l-6.781-73.695l39.859,61.499l46.194-22.849l-32.569,53.966l56.633,37.192L574.851,273.11z"/>
</g>
</svg>
